<?xml version="1.0" standalone="no"?>
<!DOCTYPE svg PUBLIC "-//W3C//DTD SVG 20010904//EN"
 "http://www.w3.org/TR/2001/REC-SVG-20010904/DTD/svg10.dtd">
<svg version="1.0" xmlns="http://www.w3.org/2000/svg"
 width="1080.000000pt" height="1080.000000pt" viewBox="0 0 1080.000000 1080.000000"
 preserveAspectRatio="xMidYMid meet">
<metadata>
Created by potrace 1.14, written by Peter Selinger 2001-2017
</metadata>
<g transform="translate(0.000000,1080.000000) scale(0.100000,-0.100000)"
fill="#000000" stroke="none">
<path d="M790 10702 c0 -5 23 -15 51 -22 27 -8 52 -18 55 -22 3 -4 13 -8 22
-8 9 0 30 -7 46 -15 15 -8 40 -17 55 -20 14 -2 27 -9 29 -15 2 -5 8 -8 13 -4
5 3 9 1 9 -5 0 -6 6 -8 14 -5 8 3 17 1 21 -5 3 -6 15 -11 26 -11 10 0 19 -4
19 -10 0 -5 9 -10 19 -10 11 0 22 -4 26 -10 3 -5 12 -7 20 -3 8 3 15 0 15 -7
0 -7 6 -10 14 -7 8 3 17 -1 20 -8 3 -8 14 -12 26 -10 11 2 18 0 15 -6 -4 -5 1
-9 10 -9 8 0 23 -4 33 -10 15 -9 69 -31 82 -35 3 0 15 -6 28 -13 12 -7 22 -9
22 -5 0 4 4 2 8 -5 5 -7 19 -15 33 -17 13 -3 25 -9 27 -14 2 -6 10 -7 18 -4 8
3 14 0 14 -6 0 -6 7 -11 15 -11 9 0 27 -7 40 -16 13 -9 30 -17 37 -19 30 -6
78 -30 78 -38 0 -4 5 -5 10 -2 6 3 10 1 10 -6 0 -7 3 -10 6 -6 4 3 23 -2 44
-13 21 -11 41 -16 45 -12 5 4 5 2 1 -5 -4 -7 3 -14 16 -18 43 -13 78 -30 78
-39 0 -4 6 -6 14 -3 8 3 16 3 18 -1 4 -9 161 -88 167 -84 2 2 7 -1 11 -8 4 -6
13 -12 21 -13 8 -2 25 -10 39 -20 13 -9 30 -17 37 -17 7 0 13 -5 13 -11 0 -5
5 -7 10 -4 6 3 10 1 10 -5 0 -7 7 -10 15 -6 9 3 15 0 15 -9 0 -8 3 -14 8 -13
7 3 123 -52 132 -62 3 -3 31 -18 63 -34 31 -15 57 -31 57 -36 0 -5 7 -6 17 -3
10 4 14 2 10 -4 -6 -10 27 -27 46 -24 4 1 7 -3 7 -7 0 -5 18 -17 40 -27 22
-10 40 -22 40 -27 0 -5 4 -7 8 -4 5 3 27 -8 49 -24 22 -16 43 -27 47 -23 3 3
6 1 6 -5 0 -7 7 -12 15 -12 8 0 15 -4 15 -9 0 -5 8 -11 18 -14 18 -6 94 -48
102 -58 3 -3 34 -23 70 -44 36 -21 67 -43 68 -47 2 -4 8 -8 13 -8 12 0 122
-71 131 -84 4 -6 8 -7 8 -3 0 4 6 3 13 -3 12 -11 61 -43 99 -66 11 -6 31 -21
45 -33 13 -13 27 -20 31 -17 3 3 11 -3 19 -14 8 -11 20 -20 27 -20 7 0 21 -9
31 -20 10 -11 24 -20 32 -20 7 0 13 -4 13 -10 0 -5 7 -10 17 -10 9 0 13 -3 10
-7 -7 -6 23 -27 56 -39 9 -3 17 -9 17 -13 0 -4 18 -17 40 -30 22 -12 40 -26
40 -32 0 -5 6 -9 13 -9 7 0 27 -13 45 -29 17 -17 32 -28 32 -25 0 3 6 0 13 -6
6 -5 37 -29 67 -52 30 -24 58 -47 62 -53 4 -5 8 -6 8 -1 0 6 9 0 20 -12 12
-12 24 -22 28 -22 4 0 18 -10 32 -22 14 -13 47 -39 73 -58 26 -19 62 -47 78
-62 17 -16 34 -28 38 -28 3 0 22 -15 42 -33 20 -17 48 -41 63 -52 15 -11 42
-33 59 -48 18 -16 45 -38 61 -50 15 -12 40 -33 55 -46 14 -13 43 -37 65 -55
21 -17 49 -40 61 -51 13 -11 44 -38 70 -60 25 -22 57 -49 69 -60 160 -142 284
-255 322 -291 18 -17 36 -29 39 -26 3 3 5 -2 5 -11 0 -9 4 -17 8 -17 5 0 59
-49 122 -110 62 -60 116 -110 119 -110 3 0 14 -12 25 -28 10 -15 38 -43 62
-62 23 -19 43 -38 43 -41 1 -11 104 -109 113 -109 5 0 6 -4 3 -10 -3 -6 1 -10
9 -10 9 0 16 -7 16 -16 0 -8 4 -12 10 -9 5 3 10 2 10 -3 0 -5 47 -57 104 -116
57 -58 103 -106 101 -106 -2 0 20 -22 47 -50 l50 -50 -18 -40 c-10 -22 -22
-40 -27 -40 -4 0 -6 -4 -3 -9 4 -5 3 -11 -2 -13 -9 -4 -164 -314 -162 -324 1
-4 -3 -10 -10 -14 -6 -4 -12 -13 -14 -21 -1 -8 -8 -25 -16 -39 -8 -14 -15 -27
-15 -30 0 -3 -9 -19 -18 -37 -9 -18 -17 -39 -17 -48 0 -8 -4 -15 -9 -15 -8 0
-18 -19 -26 -50 -6 -20 -20 -48 -33 -62 -8 -10 -12 -18 -8 -18 3 0 -1 -15 -11
-32 -9 -18 -16 -36 -15 -40 1 -5 -3 -8 -10 -8 -6 0 -9 -3 -5 -6 5 -5 -23 -70
-54 -126 -5 -10 -9 -25 -9 -33 0 -8 -5 -15 -10 -15 -6 0 -9 -3 -8 -7 1 -8 -2
-16 -41 -106 -11 -26 -21 -51 -22 -55 -1 -4 -9 -23 -20 -43 -10 -20 -15 -39
-12 -43 4 -3 1 -6 -5 -6 -7 0 -11 -3 -10 -7 1 -9 -17 -60 -32 -85 -6 -10 -10
-25 -10 -33 0 -8 -5 -15 -11 -15 -5 0 -8 -4 -5 -8 3 -5 -1 -20 -9 -35 -8 -15
-12 -27 -9 -27 2 0 -2 -13 -11 -30 -8 -16 -16 -33 -16 -37 0 -5 -7 -19 -16
-32 -10 -15 -11 -21 -2 -16 7 5 5 -2 -4 -16 -9 -13 -17 -31 -17 -41 0 -10 -5
-18 -12 -18 -6 0 -8 -3 -5 -7 4 -3 1 -13 -6 -21 -8 -11 -8 -14 0 -9 6 4 3 -10
-7 -30 -10 -21 -21 -53 -25 -70 -3 -18 -10 -33 -15 -33 -5 0 -7 -9 -5 -20 2
-11 0 -22 -6 -25 -5 -4 -9 -17 -9 -31 0 -13 -4 -24 -9 -24 -6 0 -8 -9 -6 -20
2 -11 1 -20 -3 -20 -4 0 -9 -12 -10 -27 -1 -15 -6 -29 -10 -32 -4 -3 -7 -13
-7 -21 1 -8 -5 -29 -12 -46 -7 -17 -9 -34 -6 -38 4 -3 0 -6 -8 -6 -11 0 -11
-2 1 -10 8 -5 10 -10 5 -10 -10 0 -14 -14 -17 -57 -1 -7 -4 -13 -8 -13 -3 0
-6 -8 -6 -17 -1 -17 -3 -26 -23 -105 -5 -20 -6 -39 -3 -42 3 -4 1 -6 -4 -6 -5
0 -11 -14 -12 -32 -2 -17 -8 -38 -14 -45 -7 -9 -7 -13 1 -13 8 0 9 -6 3 -17
-11 -20 -26 -99 -25 -125 0 -10 -3 -18 -8 -18 -5 0 -7 -14 -5 -30 2 -17 0 -32
-4 -35 -4 -2 -7 -20 -8 -40 -1 -20 -5 -41 -9 -48 -4 -7 -8 -23 -9 -37 -1 -14
-5 -43 -8 -65 -15 -80 -14 -85 5 -85 11 0 19 5 19 11 0 6 7 8 16 5 9 -4 22 -2
29 4 7 6 17 10 21 9 5 -1 21 1 35 5 14 4 33 8 42 10 9 1 20 5 23 9 4 4 17 7
30 7 12 0 25 6 27 13 4 9 6 9 6 -1 1 -10 6 -10 22 -1 12 6 36 13 53 16 17 3
33 9 34 14 2 5 7 7 12 4 4 -3 27 2 50 10 23 8 46 13 50 10 5 -3 11 -1 15 5 3
5 16 10 29 10 12 0 26 3 30 7 7 7 18 11 51 15 11 2 22 6 25 10 3 4 19 9 35 12
17 2 30 5 30 6 0 1 11 4 25 6 13 2 27 9 30 15 4 5 14 7 23 3 9 -3 17 -2 17 3
0 5 6 10 13 11 14 1 51 10 55 12 3 3 13 6 50 15 17 4 32 11 32 15 0 5 8 7 18
5 9 -1 26 2 37 8 21 11 40 17 63 19 6 1 12 5 12 10 0 5 4 7 9 3 5 -3 12 -1 16
4 3 5 14 8 25 6 11 -2 20 0 20 6 0 5 11 9 25 9 14 0 25 5 25 10 0 6 3 9 8 8 9
-2 94 23 107 33 6 4 30 13 55 20 25 7 47 13 50 14 3 1 18 7 33 13 16 7 35 12
43 12 9 0 12 5 8 12 -4 7 -3 8 5 4 6 -4 18 -2 26 4 8 7 15 10 15 6 0 -4 13 0
29 8 16 9 31 12 35 9 3 -4 6 -1 6 6 0 7 3 10 8 8 4 -3 25 3 46 14 22 10 44 19
49 19 5 0 23 6 40 14 35 15 69 27 77 27 3 0 14 6 25 13 11 7 43 20 70 30 45
17 85 33 140 57 11 5 27 10 35 11 8 2 17 5 20 8 9 10 176 81 190 81 3 0 13 8
24 17 10 9 20 16 22 14 8 -5 54 11 54 19 0 5 6 9 13 9 6 0 25 7 41 15 15 8 32
12 37 9 5 -3 9 -1 9 4 0 5 28 22 63 37 133 59 177 82 170 90 -5 4 -3 5 3 2 7
-4 61 17 120 47 60 29 127 61 149 71 22 11 43 23 46 28 3 5 9 8 13 7 9 -3 139
62 147 73 3 5 8 8 10 7 5 -2 62 23 69 30 11 11 72 40 86 40 8 0 14 4 14 8 0 5
24 19 53 32 28 13 63 31 76 42 13 10 27 15 32 12 5 -3 9 0 9 5 0 6 7 11 15 11
8 0 15 5 15 11 0 5 4 8 9 5 5 -3 14 1 21 9 7 8 16 12 21 9 5 -3 9 -1 9 5 0 6
11 13 25 17 14 3 25 10 25 16 0 5 4 7 9 3 5 -3 12 -1 15 4 3 5 29 21 58 36 29
15 61 34 70 43 10 8 18 12 18 8 0 -4 10 2 22 13 11 11 24 18 28 16 4 -3 13 2
20 10 7 8 16 12 21 9 5 -3 9 -2 9 3 0 4 25 21 55 38 30 16 55 33 55 37 0 4 9
8 20 8 11 0 20 4 20 9 0 5 15 16 33 25 49 26 101 57 107 66 3 4 15 10 28 14
12 4 22 12 22 17 0 6 5 7 10 4 6 -3 10 -1 10 4 0 6 7 11 15 11 8 0 15 4 15 9
0 5 9 13 20 16 11 4 34 18 50 32 17 13 30 22 30 19 0 -3 38 21 85 54 47 33 90
60 95 60 4 0 10 3 12 8 2 4 27 22 56 41 28 18 52 37 52 41 0 4 8 10 18 14 22
7 49 25 81 54 14 12 29 22 32 22 3 0 19 11 35 25 16 14 32 25 37 25 4 0 15 8
25 18 10 9 31 26 46 37 16 11 37 28 48 38 10 9 21 18 26 20 4 1 6 5 4 10 -1 4
4 7 11 7 16 0 237 213 237 229 0 12 -24 41 -34 41 -2 0 -37 32 -77 70 -39 39
-76 70 -80 70 -5 0 -9 8 -9 17 0 9 -2 14 -5 11 -3 -3 -25 13 -49 36 -37 35
-87 81 -240 220 -17 15 -52 48 -78 72 -26 24 -49 44 -51 44 -3 0 -21 15 -40
33 -59 55 -119 107 -124 107 -2 0 -10 6 -17 13 -7 6 -34 30 -61 52 -26 22 -58
49 -71 60 -13 11 -36 30 -51 42 -15 12 -38 30 -49 40 -12 10 -36 29 -54 43
-18 14 -47 37 -64 52 -17 15 -34 28 -38 28 -4 0 -19 11 -33 25 -14 14 -25 23
-25 20 0 -3 -8 3 -18 13 -10 9 -33 28 -52 42 -18 14 -39 31 -46 38 -7 7 -17
14 -21 15 -4 1 -15 7 -23 14 -8 7 -33 26 -55 42 -22 17 -47 36 -55 43 -8 7
-22 18 -31 23 -25 15 -230 162 -256 184 -12 10 -25 16 -28 13 -3 -3 -5 0 -5 6
0 6 -9 14 -20 17 -11 4 -31 17 -44 30 -13 13 -27 21 -30 18 -3 -4 -6 -2 -6 4
0 6 -14 16 -30 23 -16 7 -30 16 -30 21 0 5 -7 9 -15 9 -9 0 -18 7 -21 15 -4 8
-10 15 -15 15 -8 0 -99 56 -134 82 -34 26 -118 78 -126 78 -5 0 -9 5 -9 10 0
6 -5 10 -10 10 -12 0 -124 72 -128 83 -2 4 -8 7 -13 7 -6 0 -34 16 -64 35 -30
19 -55 32 -55 28 0 -3 -8 4 -19 15 -10 12 -21 19 -25 15 -3 -3 -6 -1 -6 6 0 7
-4 9 -10 6 -5 -3 -10 -3 -10 2 0 4 -18 17 -40 27 -22 11 -40 22 -40 25 0 3
-15 12 -32 20 -18 8 -52 27 -74 42 -23 16 -44 25 -48 22 -3 -4 -6 -1 -6 6 0 7
-4 9 -10 6 -5 -3 -10 -2 -10 3 0 5 -22 19 -50 32 -27 13 -50 27 -50 32 0 4 -9
8 -20 8 -11 0 -20 3 -20 8 0 4 -15 13 -32 21 -18 8 -35 17 -38 20 -3 3 -43 26
-90 50 -47 24 -88 49 -92 55 -4 6 -8 8 -8 4 0 -4 -20 4 -45 17 -88 50 -160 85
-171 85 -7 0 -14 3 -16 8 -4 10 -391 200 -423 208 -14 3 -25 10 -25 15 0 5 -5
9 -12 9 -6 0 -30 9 -52 19 -23 11 -48 21 -56 23 -8 2 -21 9 -28 16 -8 7 -18
10 -23 7 -5 -4 -9 -1 -9 4 0 6 -8 11 -19 11 -10 0 -24 7 -31 15 -7 8 -15 13
-19 11 -3 -2 -24 4 -45 15 -22 10 -46 19 -53 19 -7 0 -13 5 -13 10 0 6 -7 10
-15 10 -8 0 -23 4 -33 9 -9 5 -28 13 -42 19 -14 5 -41 17 -62 26 -20 9 -41 16
-47 16 -6 0 -11 5 -11 12 0 6 -3 9 -6 5 -3 -3 -30 5 -59 18 -30 13 -56 21 -59
17 -3 -3 -6 1 -6 8 0 7 -3 10 -6 7 -4 -3 -16 -1 -28 5 -11 7 -28 13 -36 14 -8
2 -23 7 -35 13 -11 5 -54 22 -95 37 -41 16 -78 32 -81 37 -3 4 -13 5 -22 1
-11 -4 -17 -1 -17 7 0 7 -3 10 -6 6 -4 -3 -19 0 -34 8 -15 8 -30 11 -34 8 -3
-4 -6 -1 -6 5 0 7 -3 11 -7 10 -11 -2 -66 13 -78 22 -13 9 -98 34 -107 32 -5
-1 -8 2 -8 8 0 5 -7 7 -15 4 -8 -4 -15 -1 -15 5 0 6 -6 8 -14 5 -8 -3 -17 -1
-21 5 -3 6 -17 11 -31 11 -13 0 -24 4 -24 8 0 4 -12 9 -26 10 -15 1 -33 7 -40
13 -7 6 -18 8 -24 4 -5 -3 -10 -1 -10 5 0 7 -7 10 -15 7 -8 -4 -17 -2 -20 4
-4 5 -11 7 -16 4 -5 -4 -9 -1 -9 4 0 6 -3 10 -7 9 -5 -1 -19 1 -33 5 -23 7
-92 26 -115 32 -5 1 -12 2 -15 3 -3 0 -22 7 -44 16 -21 9 -51 17 -67 18 -16 1
-29 6 -29 10 0 4 -7 8 -16 8 -8 0 -54 11 -102 24 -48 14 -103 28 -122 31 -19
3 -37 9 -40 13 -3 4 -18 7 -33 7 -16 -1 -31 4 -35 10 -4 5 -16 11 -27 11 -20
1 -31 4 -108 23 -20 5 -37 6 -37 2 0 -3 -4 -1 -8 5 -4 7 -27 15 -52 18 -55 9
-92 14 -103 15 -5 1 -6 4 -4 9 3 4 -7 8 -21 8 -46 3 -87 9 -98 16 -6 4 -27 8
-47 10 -21 1 -37 5 -37 8 0 4 -16 6 -35 5 -25 0 -35 4 -35 15 0 11 -3 11 -8 3
-5 -7 -13 -9 -21 -3 -8 4 -20 6 -28 3 -7 -3 -13 1 -13 8 0 11 -3 11 -10 -1 -7
-11 -10 -11 -10 -2 0 7 -6 12 -12 11 -7 -1 -29 1 -48 4 -19 4 -48 9 -65 11
-16 2 -30 5 -30 6 0 3 -27 7 -72 11 -18 2 -33 6 -33 10 0 4 -8 6 -17 5 -10 -2
-34 1 -54 5 -31 7 -86 16 -139 23 -9 1 -21 5 -28 10 -7 4 -12 2 -12 -4 0 -8
-6 -8 -20 0 -11 6 -40 12 -65 13 -25 1 -45 4 -45 7 0 3 -10 6 -22 6 -13 1 -48
4 -78 8 -30 4 -73 10 -95 13 -22 3 -61 6 -87 7 -25 0 -44 4 -42 7 3 6 -25 9
-108 12 -27 1 -48 4 -48 7 0 3 -26 6 -58 8 -69 3 -89 6 -98 15 -4 4 -13 2 -21
-4 -7 -6 -13 -8 -13 -3 0 5 -26 10 -58 10 -31 1 -70 5 -86 9 -22 6 -27 5 -21
-5 6 -9 3 -10 -12 -1 -19 10 -157 22 -275 25 -32 0 -58 3 -58 6 0 3 -13 5 -30
5 -16 0 -30 -4 -30 -8 0 -4 -8 -4 -17 1 -10 5 -49 10 -88 12 -134 4 -160 6
-174 15 -10 5 -12 4 -7 -3 4 -7 2 -12 -3 -12 -6 0 -11 4 -11 9 0 6 -12 6 -29
1 -21 -6 -31 -5 -35 3 -3 9 -7 8 -14 -2 -7 -9 -12 -10 -16 -2 -4 6 -14 11 -22
11 -10 0 -12 -5 -8 -12 5 -9 2 -9 -9 1 -14 11 -20 11 -34 0 -9 -8 -14 -9 -10
-2 5 8 -29 11 -128 12 -74 1 -135 -2 -135 -7z"/>
<path d="M684 10412 c3 -6 2 -13 -4 -17 -6 -4 -8 -10 -5 -15 3 -5 1 -11 -4
-15 -5 -3 -8 -14 -6 -25 2 -11 0 -20 -5 -20 -5 0 -7 -9 -5 -20 2 -11 -1 -20
-6 -20 -6 0 -7 -4 -4 -10 3 -5 2 -18 -4 -27 -5 -10 -12 -31 -15 -48 -3 -16
-10 -50 -17 -75 -6 -25 -13 -56 -14 -69 -2 -13 -7 -27 -12 -30 -4 -3 -9 -15
-9 -26 -1 -20 -4 -31 -25 -115 -6 -25 -12 -52 -14 -61 -2 -9 -8 -33 -13 -53
-6 -20 -8 -36 -5 -36 3 0 0 -6 -6 -14 -6 -8 -11 -18 -10 -22 1 -5 0 -12 -1
-16 -1 -5 -4 -17 -5 -28 -1 -11 -4 -22 -5 -25 -4 -8 -6 -18 -15 -70 -4 -27
-10 -54 -13 -60 -3 -5 -6 -21 -7 -35 -1 -14 -5 -32 -10 -40 -5 -7 -9 -30 -10
-49 -1 -20 -3 -36 -4 -36 -3 0 -8 -22 -16 -70 -3 -22 -9 -48 -11 -58 -3 -10
-8 -34 -10 -54 -3 -20 -9 -54 -14 -76 -5 -23 -7 -45 -4 -49 3 -4 0 -8 -7 -8
-10 0 -10 -3 -2 -11 8 -8 7 -18 -2 -36 -7 -14 -12 -34 -10 -44 2 -11 0 -19 -5
-19 -4 0 -6 -9 -3 -19 3 -10 0 -28 -6 -40 -9 -16 -9 -21 1 -21 9 0 9 -3 0 -12
-7 -7 -12 -26 -12 -43 0 -18 -3 -35 -7 -39 -4 -3 -7 -26 -8 -51 0 -24 -4 -47
-8 -51 -12 -12 -8 -26 6 -18 9 6 9 4 1 -7 -10 -12 -20 -61 -29 -154 -2 -16 -7
-52 -10 -80 -4 -27 -8 -57 -9 -65 -1 -8 -5 -21 -9 -27 -5 -8 -3 -13 5 -13 8 0
9 -3 3 -8 -5 -4 -12 -32 -13 -62 -2 -30 -8 -60 -13 -67 -7 -7 -6 -13 0 -17 5
-4 6 -18 2 -34 -4 -15 -7 -44 -7 -65 1 -20 -1 -37 -5 -37 -3 0 -5 -25 -5 -56
1 -31 -2 -58 -6 -60 -4 -2 -5 -16 -2 -29 2 -14 1 -25 -3 -25 -5 0 -8 -34 -8
-75 1 -41 -3 -75 -7 -75 -8 0 -3 -34 8 -52 4 -6 3 -8 -3 -5 -7 4 -11 -21 -13
-71 -3 -111 -6 -157 -11 -168 -2 -5 -4 -64 -4 -131 0 -68 -2 -123 -5 -123 -3
0 -6 -220 -7 -490 0 -337 2 -488 10 -483 6 3 7 1 3 -5 -12 -19 -13 -81 -2 -86
6 -3 6 -5 -2 -5 -8 -1 -10 -7 -5 -18 5 -10 8 -66 8 -125 0 -60 3 -108 7 -108
11 0 5 -23 -7 -32 -7 -5 -6 -8 0 -8 6 0 12 -14 13 -31 2 -22 -1 -28 -10 -23
-10 6 -10 5 -1 -7 7 -8 14 -53 16 -100 1 -46 6 -90 11 -97 4 -7 2 -12 -6 -12
-8 0 -9 -3 -3 -8 6 -4 11 -27 12 -52 3 -92 8 -140 16 -140 4 0 4 -8 -2 -17 -5
-9 -6 -26 -1 -37 4 -12 7 -33 6 -48 -1 -16 1 -28 4 -28 3 0 5 -17 6 -38 1 -33
9 -116 20 -197 2 -16 6 -52 9 -80 8 -71 9 -78 19 -94 7 -10 5 -12 -3 -6 -10 6
-11 3 -3 -11 5 -11 9 -31 8 -46 -1 -16 3 -28 9 -28 5 0 3 -5 -5 -10 -8 -5 -10
-10 -4 -10 10 0 13 -9 15 -47 0 -10 3 -25 6 -33 3 -8 7 -35 8 -60 1 -25 3 -45
5 -45 3 0 8 -31 12 -77 2 -21 6 -38 9 -38 4 0 6 -16 5 -36 -1 -20 2 -38 6 -40
4 -2 5 -13 3 -24 -2 -11 0 -20 5 -20 5 0 7 -9 5 -20 -2 -11 2 -20 8 -20 7 0 6
-4 -3 -10 -9 -6 -10 -10 -3 -10 6 0 12 -8 12 -18 0 -15 3 -40 14 -102 1 -8 7
-21 11 -29 7 -11 6 -12 -5 -6 -11 7 -12 6 -3 -6 11 -13 22 -60 28 -119 1 -14
6 -31 10 -38 4 -8 5 -16 2 -19 -3 -3 0 -15 6 -27 6 -11 11 -33 10 -48 -1 -16
2 -28 6 -28 5 0 9 -16 10 -36 1 -20 6 -42 12 -49 5 -6 8 -14 5 -16 -2 -3 2
-29 10 -59 8 -30 17 -67 20 -82 3 -15 9 -37 14 -50 5 -13 9 -26 9 -31 3 -29
16 -84 22 -92 6 -10 8 -20 13 -75 1 -14 7 -28 13 -32 6 -4 10 -19 9 -33 -2
-14 1 -25 7 -25 6 0 8 -6 5 -14 -3 -8 -3 -17 1 -21 4 -4 8 -11 8 -16 1 -5 2
-10 3 -11 2 -2 5 -14 8 -28 6 -34 7 -37 28 -105 11 -33 18 -66 17 -72 -2 -7 2
-13 9 -13 6 0 9 -8 6 -20 -3 -11 -1 -20 5 -20 5 0 6 -4 3 -10 -3 -5 -2 -10 4
-10 6 0 8 -6 5 -14 -3 -8 -1 -17 5 -20 6 -4 8 -13 5 -20 -3 -8 0 -17 5 -21 6
-3 9 -11 6 -16 -4 -5 -1 -9 5 -9 6 0 9 -4 5 -10 -3 -5 -1 -17 4 -27 5 -10 15
-39 22 -65 7 -26 16 -45 20 -43 3 3 4 -7 1 -20 -2 -15 0 -25 7 -25 7 0 10 -4
6 -10 -3 -5 -2 -17 3 -27 10 -19 31 -78 37 -103 5 -23 37 -111 52 -147 7 -17
13 -35 13 -39 0 -7 33 -98 60 -169 5 -11 18 -47 30 -80 27 -73 34 -91 53 -135
9 -19 13 -38 11 -42 -3 -4 0 -8 5 -8 6 0 11 -7 11 -15 0 -8 12 -40 27 -72 14
-32 25 -64 24 -71 -1 -6 2 -12 7 -12 5 0 9 -6 9 -12 0 -7 7 -29 16 -48 51
-113 60 -136 58 -147 -1 -7 3 -13 9 -13 5 0 10 -6 10 -13 0 -8 6 -27 14 -43
26 -54 59 -129 57 -132 -1 -1 12 -28 28 -60 15 -31 32 -68 36 -82 4 -13 14
-30 21 -38 8 -7 12 -18 9 -23 -4 -5 -1 -9 4 -9 6 0 11 -9 11 -19 0 -11 6 -26
13 -33 7 -7 14 -16 15 -20 8 -28 19 -53 58 -131 24 -49 44 -95 44 -103 0 -8 5
-14 11 -14 5 0 7 -4 4 -10 -3 -5 -2 -10 2 -10 9 0 48 -80 45 -92 -1 -5 2 -8 7
-8 7 0 18 -24 20 -46 0 -2 7 -12 16 -20 8 -9 13 -20 10 -25 -4 -5 -1 -9 5 -9
6 0 9 -4 6 -9 -3 -5 1 -12 10 -15 9 -4 14 -9 11 -12 -7 -7 71 -157 84 -162 4
-2 5 -10 2 -18 -3 -8 -1 -14 4 -14 5 0 15 -16 22 -36 16 -44 33 -27 20 20 -4
17 -10 58 -13 91 -2 33 -7 67 -10 75 -5 15 -12 73 -22 170 -7 74 -11 98 -19
110 -3 5 -1 10 5 10 7 0 8 6 1 18 -6 11 -10 27 -10 38 0 21 -6 86 -16 184 -4
36 -8 85 -10 110 -2 25 -4 45 -5 45 -1 0 -3 35 -5 78 -2 42 -7 82 -10 87 -3 6
-1 10 5 10 7 0 8 5 3 13 -4 6 -9 30 -10 52 -11 213 -14 295 -17 457 -2 102 -7
191 -10 197 -4 6 -4 11 1 11 4 0 8 11 8 25 0 14 -3 25 -7 25 -4 0 -5 6 -3 13
10 27 12 77 2 77 -6 0 -5 5 1 13 6 7 7 18 3 26 -4 7 -5 29 -2 49 3 20 6 115 6
209 0 95 2 173 5 173 3 0 6 52 7 115 1 63 4 130 7 147 3 18 0 38 -6 45 -7 9
-6 14 3 18 10 4 14 28 14 90 0 47 4 85 8 85 4 0 3 9 -3 19 -6 12 -6 22 -1 26
5 3 10 22 10 43 0 20 2 57 5 82 3 25 8 68 11 95 9 104 14 151 20 195 3 25 8
61 10 80 12 107 22 185 25 185 2 0 5 31 13 123 1 12 4 22 7 22 3 0 6 12 7 27
1 16 4 51 7 80 2 28 7 56 10 62 4 6 9 30 12 53 3 24 7 52 9 63 2 11 4 33 4 48
1 16 5 26 9 23 4 -2 8 13 7 35 -1 21 2 39 5 39 4 0 7 6 7 13 0 6 3 32 7 57 4
25 9 54 10 65 2 11 6 27 9 35 6 16 18 82 20 118 1 12 4 22 7 22 3 0 6 8 6 18
1 17 9 56 20 102 3 14 7 33 7 43 1 9 4 17 7 17 3 0 6 12 7 28 1 15 6 45 13 67
6 22 12 51 14 65 2 14 9 45 16 70 7 25 14 59 17 75 3 17 8 32 11 35 4 3 8 12
8 20 2 20 9 50 29 135 10 39 18 76 18 83 0 6 5 12 10 12 5 0 6 7 3 16 -4 9 -2
22 2 28 5 6 12 22 15 36 5 24 10 45 23 93 3 12 7 30 7 40 1 9 4 17 7 17 4 0 7
6 7 13 0 6 7 35 16 64 8 28 13 54 10 57 -4 3 -1 6 6 6 7 0 9 5 6 10 -3 6 -2
10 3 10 5 0 8 11 7 25 -2 14 1 25 7 25 5 0 6 9 3 20 -4 13 -1 22 8 25 8 4 13
18 12 35 -1 17 1 30 5 30 7 0 17 37 22 78 1 6 4 12 8 12 5 0 9 18 12 58 1 6 6
12 11 12 5 0 7 6 4 14 -3 7 -2 17 2 22 4 5 13 29 21 54 7 25 22 71 32 104 11
32 21 63 22 70 1 6 4 16 7 21 4 6 9 23 13 39 4 17 10 26 14 20 8 -10 48 -12
58 -2 4 4 14 4 23 -1 9 -5 25 -6 36 -4 11 2 79 5 150 7 72 1 136 5 143 10 6 4
12 3 12 -3 0 -6 7 -8 15 -5 8 3 38 7 67 9 29 1 55 4 58 5 12 4 110 1 119 -4 5
-4 12 -2 16 3 3 5 13 10 23 9 23 0 189 10 277 18 39 3 77 6 85 6 8 0 22 2 30
5 8 3 47 7 85 8 39 2 88 7 110 10 48 7 132 15 200 20 28 2 50 4 50 5 0 3 51
11 90 14 22 2 40 5 40 6 0 1 14 3 31 5 16 2 48 6 70 10 21 4 50 8 64 10 14 2
40 6 58 9 17 4 47 8 65 12 17 3 43 7 57 9 14 3 45 9 70 15 25 6 59 12 75 15
17 2 43 8 59 15 16 6 45 13 64 16 19 3 47 10 61 16 14 5 37 12 51 15 42 8 55
11 55 13 0 2 38 11 53 12 6 1 12 4 12 8 0 7 9 9 55 12 14 1 25 6 25 10 0 4 8
8 18 8 9 0 55 14 102 30 46 16 88 26 92 24 4 -3 8 -1 8 5 0 6 7 8 15 5 8 -4
15 -2 15 4 0 8 41 21 65 22 3 0 18 6 34 14 16 9 31 12 35 9 3 -4 6 -1 6 5 0 7
3 11 8 11 17 -3 72 14 72 23 0 5 4 7 9 4 4 -3 16 1 27 8 21 15 36 -4 -185 226
-61 63 -111 116 -111 117 0 7 -103 103 -111 103 -5 0 -9 5 -9 10 0 6 -41 50
-91 98 -50 48 -120 114 -154 147 -34 33 -96 91 -136 128 -41 37 -98 90 -128
117 -29 28 -58 50 -63 50 -5 0 -6 5 -3 10 3 6 3 10 -2 10 -4 0 -21 12 -38 26
-95 82 -201 174 -241 209 -12 11 -37 31 -55 45 -17 14 -40 33 -50 43 -11 9
-22 17 -25 17 -3 0 -19 14 -34 30 -15 17 -33 30 -39 30 -6 0 -16 9 -23 20 -7
11 -16 20 -20 20 -7 0 -32 19 -62 45 -29 27 -156 125 -161 125 -3 0 -16 11
-29 25 -13 14 -28 25 -35 25 -6 0 -11 4 -11 8 0 4 -13 16 -30 25 -16 10 -35
23 -42 30 -23 23 -167 128 -174 126 -4 0 -10 4 -13 9 -3 6 -35 31 -71 58 -36
26 -68 51 -71 56 -3 6 -9 8 -12 6 -3 -1 -16 6 -29 17 -37 32 -147 105 -158
105 -5 0 -10 5 -10 10 0 6 -7 10 -16 10 -8 0 -12 5 -9 10 3 6 -3 10 -15 10
-12 0 -18 5 -15 10 3 6 2 10 -3 10 -6 0 -67 38 -136 84 -69 46 -126 82 -126
80 0 -3 -6 0 -12 6 -46 39 -62 50 -70 50 -11 0 -72 42 -76 53 -2 4 -8 7 -13 7
-4 0 -58 31 -119 69 -60 39 -110 68 -110 65 0 -3 -6 0 -12 6 -20 16 -80 53
-113 70 -16 8 -32 17 -35 20 -3 3 -16 11 -29 18 -37 21 -92 53 -136 78 -22 13
-57 31 -77 41 -21 10 -38 21 -38 26 0 4 -4 6 -9 3 -5 -3 -14 1 -21 9 -7 8 -16
15 -21 15 -4 0 -30 13 -58 29 -27 16 -52 27 -55 24 -3 -4 -6 -1 -6 6 0 7 -4 9
-10 6 -5 -3 -10 -1 -10 4 0 6 -9 11 -19 11 -11 0 -21 4 -23 9 -2 7 -340 183
-358 186 -3 1 -46 22 -97 47 -50 25 -93 44 -96 42 -2 -3 -10 2 -17 11 -7 8
-18 15 -24 15 -7 0 -64 25 -126 57 -63 31 -121 56 -127 56 -7 0 -13 4 -13 9 0
4 -7 8 -15 8 -8 0 -23 4 -33 9 -25 14 -56 24 -64 23 -5 -1 -8 3 -8 9 0 6 -6 9
-14 6 -8 -3 -16 -2 -18 3 -2 5 -16 12 -32 16 -20 5 -27 3 -22 -4z"/>
<path d="M10599 6447 c-32 -25 -113 -93 -131 -109 -10 -10 -18 -15 -18 -10 0
4 -5 -1 -11 -10 -5 -10 -17 -18 -24 -18 -8 0 -15 -4 -15 -8 0 -5 -31 -32 -70
-61 -38 -28 -70 -56 -70 -61 0 -6 -3 -9 -7 -9 -21 3 -33 -3 -33 -17 0 -8 -4
-13 -9 -9 -5 3 -17 -5 -25 -17 -9 -12 -16 -18 -16 -13 0 5 -13 -4 -30 -20 -16
-16 -30 -25 -30 -20 0 4 -8 -2 -19 -13 -10 -12 -24 -22 -30 -22 -6 0 -14 -7
-17 -15 -4 -8 -12 -15 -19 -15 -7 0 -15 -3 -17 -7 -4 -11 -217 -163 -228 -163
-4 0 -10 -4 -12 -8 -1 -5 -42 -35 -90 -67 -49 -32 -88 -62 -88 -67 0 -4 -3 -7
-8 -5 -11 3 -112 -63 -112 -74 0 -5 -3 -8 -7 -7 -11 2 -63 -24 -63 -32 0 -8
-52 -34 -62 -32 -5 1 -8 -2 -8 -7 0 -6 -22 -22 -50 -37 -27 -15 -50 -31 -50
-36 0 -5 -4 -6 -10 -3 -5 3 -10 2 -10 -3 0 -4 -19 -18 -42 -31 -51 -26 -81
-44 -88 -52 -8 -8 -44 -22 -53 -20 -5 1 -6 -3 -2 -9 3 -5 3 -10 -2 -10 -4 0
-45 -22 -90 -49 -46 -27 -83 -46 -83 -43 0 4 -4 3 -8 -3 -8 -12 -34 -28 -82
-52 -19 -9 -37 -20 -40 -23 -3 -4 -24 -15 -47 -25 -24 -11 -43 -23 -43 -28 0
-4 -4 -5 -10 -2 -5 3 -10 3 -10 -2 0 -4 -67 -42 -148 -83 -81 -41 -149 -78
-152 -81 -7 -9 -298 -151 -306 -149 -4 1 -10 -2 -13 -7 -7 -11 -75 -43 -90
-43 -6 0 -11 -5 -11 -10 0 -6 -3 -9 -7 -8 -5 1 -21 -5 -38 -12 -16 -7 -33 -13
-37 -12 -5 1 -8 -3 -8 -9 0 -5 -4 -7 -10 -4 -5 3 -10 2 -10 -4 0 -6 -12 -14
-27 -17 -16 -4 -39 -13 -53 -20 -31 -16 -160 -74 -165 -74 -3 0 -29 -11 -60
-25 -30 -14 -80 -36 -111 -50 -31 -14 -59 -24 -61 -21 -3 3 -12 -2 -20 -10 -8
-8 -19 -12 -24 -9 -5 4 -9 1 -9 -5 0 -7 -6 -10 -14 -7 -8 3 -16 1 -18 -4 -2
-6 -10 -11 -18 -13 -8 -1 -32 -10 -53 -19 -21 -9 -45 -18 -55 -19 -9 -2 -23
-9 -30 -15 -12 -12 -34 -17 -54 -14 -5 0 -8 -4 -8 -9 0 -6 -8 -10 -17 -10 -10
0 -31 -7 -47 -15 -15 -8 -37 -15 -47 -15 -11 0 -19 -4 -19 -10 0 -5 -6 -10
-14 -10 -8 0 -27 -5 -43 -12 -15 -6 -31 -12 -35 -13 -5 -2 -10 -4 -13 -5 -3
-1 -9 -3 -14 -4 -5 0 -13 -4 -17 -8 -4 -5 -16 -8 -26 -8 -10 0 -18 -5 -18 -11
0 -5 -5 -7 -10 -4 -6 4 -16 3 -23 -2 -7 -5 -39 -18 -72 -29 -33 -10 -62 -21
-65 -24 -3 -3 -12 -6 -20 -6 -17 -1 -47 -11 -74 -26 -10 -5 -30 -12 -44 -14
-13 -3 -30 -6 -36 -7 -6 -1 -14 -6 -17 -10 -3 -4 -16 -9 -27 -10 -12 -1 -22
-5 -22 -10 0 -4 -4 -5 -10 -2 -5 3 -28 -3 -50 -14 -22 -10 -37 -14 -33 -8 5 8
2 8 -9 0 -8 -7 -18 -10 -21 -6 -4 3 -7 1 -7 -6 0 -8 -7 -11 -15 -7 -8 3 -15 2
-15 -3 0 -4 -6 -8 -12 -9 -25 -1 -57 -11 -80 -23 -13 -7 -24 -12 -25 -11 -2 1
-4 2 -5 1 -2 0 -16 -3 -33 -5 -16 -3 -32 -8 -35 -12 -5 -7 -20 -12 -55 -17
-11 -1 -28 -6 -37 -9 -9 -4 -23 -9 -32 -10 -8 -1 -19 -5 -22 -9 -4 -4 -16 -7
-26 -7 -10 0 -18 -3 -18 -8 0 -4 -12 -8 -27 -9 -48 -4 -93 -15 -93 -23 0 -5
-8 -7 -17 -5 -10 1 -23 -1 -29 -6 -6 -5 -25 -9 -42 -11 -18 -1 -32 -6 -32 -11
0 -5 -7 -7 -15 -4 -8 4 -17 3 -19 -2 -3 -4 -29 -13 -58 -19 -29 -7 -62 -14
-73 -17 -11 -2 -47 -12 -80 -21 -33 -9 -67 -17 -75 -19 -8 -2 -53 -13 -100
-25 -47 -12 -93 -22 -102 -22 -10 1 -18 -3 -18 -7 0 -4 -18 -7 -39 -6 -22 1
-39 -3 -38 -9 1 -5 -11 -10 -28 -11 -16 0 -35 -4 -41 -8 -13 -7 -48 26 -38 36
4 4 -1 9 -10 13 -9 3 -13 10 -10 15 3 5 0 9 -5 9 -6 0 -11 6 -11 14 0 8 -6 21
-13 28 -6 7 -30 42 -51 78 -22 36 -43 67 -48 68 -4 2 -8 8 -8 14 0 6 -16 33
-35 59 -19 27 -35 51 -35 54 0 3 -9 15 -20 27 -11 12 -20 28 -20 35 0 7 -4 13
-10 13 -5 0 -10 7 -10 15 0 8 -4 15 -10 15 -5 0 -10 5 -10 10 0 6 -9 20 -20
32 -11 12 -20 28 -20 35 0 7 -3 13 -7 13 -5 0 -24 25 -43 55 -19 30 -38 55
-42 55 -5 0 -8 7 -8 15 0 8 -4 15 -10 15 -5 0 -10 7 -10 15 0 8 -4 15 -10 15
-5 0 -10 6 -10 14 0 8 -3 16 -7 18 -5 2 -26 29 -47 61 -22 31 -43 57 -48 57
-5 0 -7 4 -4 9 4 5 3 11 -2 13 -4 1 -19 19 -32 38 -51 74 -204 275 -214 282
-6 4 -7 8 -3 8 4 0 -2 10 -13 23 -11 12 -42 49 -68 82 -74 95 -76 97 -94 117
-10 10 -18 20 -18 23 0 3 -8 13 -17 24 -10 10 -38 42 -63 71 -25 30 -60 68
-77 86 -18 18 -33 36 -33 39 0 17 -440 437 -574 548 -21 18 -54 47 -73 65 -19
17 -37 32 -40 32 -2 0 -26 18 -53 41 -27 23 -54 38 -59 34 -6 -3 -9 -10 -6
-15 3 -5 1 -11 -4 -15 -6 -3 -7 -13 -4 -22 4 -9 2 -14 -3 -11 -5 4 -10 -7 -11
-24 -1 -16 -8 -42 -16 -57 -8 -15 -13 -35 -11 -44 1 -9 -1 -17 -5 -17 -4 0 -8
-6 -9 -12 -1 -7 -3 -24 -5 -38 -1 -14 -5 -29 -8 -35 -4 -5 -10 -23 -14 -40
-11 -48 -14 -58 -26 -100 -6 -22 -11 -48 -12 -57 -1 -10 -4 -18 -7 -18 -4 0
-7 -6 -8 -12 -2 -31 -12 -77 -25 -120 -8 -26 -12 -49 -9 -52 3 -4 0 -6 -7 -6
-7 0 -10 -4 -7 -8 3 -4 0 -26 -5 -48 -6 -21 -10 -47 -10 -56 0 -10 -4 -18 -8
-18 -4 0 -8 -10 -8 -22 -3 -43 -7 -68 -13 -68 -3 0 -6 -10 -7 -22 -1 -13 -4
-36 -8 -53 -3 -16 -7 -38 -8 -47 -1 -10 -4 -18 -7 -18 -4 0 -7 -6 -7 -12 -1
-7 -4 -33 -8 -58 -4 -25 -7 -51 -8 -57 0 -7 -3 -13 -7 -13 -3 0 -7 -10 -7 -22
-1 -22 -9 -68 -19 -113 -2 -11 -8 -40 -13 -65 -9 -43 -10 -47 -12 -52 -1 -2
-2 -16 -4 -33 -1 -16 -3 -30 -5 -30 -1 0 -3 -9 -4 -20 -2 -11 -7 -40 -11 -65
-5 -25 -9 -55 -9 -67 -1 -13 -3 -23 -6 -23 -4 0 -6 -10 -7 -22 0 -13 -4 -45
-9 -73 -4 -27 -8 -60 -8 -72 -1 -13 -4 -23 -8 -23 -4 0 -7 -10 -7 -22 1 -13
-2 -45 -6 -73 -5 -27 -9 -67 -9 -87 -1 -21 -4 -38 -8 -38 -5 0 -8 -22 -8 -48
0 -26 -5 -53 -12 -60 -9 -9 -9 -12 1 -12 7 0 9 -5 4 -12 -4 -7 -8 -24 -9 -38
-1 -14 -4 -43 -7 -65 -10 -63 -19 -146 -23 -200 -2 -27 -6 -66 -9 -85 -2 -19
-6 -58 -8 -86 -2 -28 -7 -55 -10 -62 -4 -6 -3 -13 3 -17 6 -4 7 -12 3 -18 -4
-6 -8 -29 -10 -52 -2 -22 -6 -67 -9 -100 -8 -92 -12 -144 -18 -220 -3 -38 -8
-106 -12 -150 -4 -44 -7 -102 -8 -130 0 -27 -5 -53 -11 -57 -6 -5 -5 -8 3 -8
10 0 10 -5 2 -20 -8 -14 -8 -20 0 -20 6 0 8 -5 3 -12 -13 -22 -13 -48 0 -48 9
0 9 -2 0 -8 -8 -5 -13 -53 -16 -139 -3 -72 -8 -136 -11 -142 -4 -6 -3 -11 2
-11 5 0 9 -7 9 -15 0 -8 -4 -12 -8 -9 -4 2 -7 -5 -6 -16 1 -11 5 -20 10 -20 4
0 5 -6 0 -12 -11 -17 -12 -807 -1 -814 4 -3 4 -14 -2 -24 -7 -13 -7 -21 0 -25
8 -5 8 -11 0 -20 -8 -9 -8 -15 0 -20 5 -3 10 -11 10 -16 0 -6 -5 -7 -11 -3 -8
5 -8 1 0 -14 14 -27 14 -35 -1 -26 -10 6 -10 4 0 -8 7 -9 12 -20 11 -24 -1 -5
-1 -37 0 -72 1 -48 4 -61 14 -56 9 6 9 4 1 -7 -6 -8 -9 -30 -7 -49 2 -19 5
-57 7 -85 2 -27 7 -77 10 -110 8 -72 16 -147 20 -197 2 -20 7 -41 10 -47 4 -6
1 -11 -6 -11 -9 0 -10 -3 -2 -8 11 -6 23 -75 36 -199 1 -7 4 -13 7 -13 3 0 6
-10 7 -22 1 -13 4 -41 8 -63 4 -22 8 -46 8 -53 1 -12 58 -14 58 -2 0 4 6 7 13
8 14 1 51 10 55 12 1 2 5 3 10 4 4 1 16 5 27 8 11 4 54 16 95 28 41 12 82 25
90 28 8 3 24 7 34 9 11 2 24 7 30 12 6 5 19 7 29 6 9 -2 17 1 17 7 0 6 7 8 15
5 8 -4 17 -2 20 4 4 5 11 7 16 4 5 -4 9 -2 9 4 0 5 8 8 17 7 10 -2 21 1 24 5
3 5 17 10 32 11 15 1 27 7 27 12 0 5 3 7 6 3 3 -3 27 2 53 12 25 11 49 19 54
20 4 0 8 1 10 2 1 0 10 2 20 4 10 2 26 7 35 11 9 4 20 8 25 9 4 2 9 4 12 5 3
1 10 4 15 5 6 1 12 4 15 5 3 1 8 3 13 5 52 14 69 20 91 31 14 8 33 14 42 14 8
0 20 5 27 12 7 7 12 9 12 5 0 -4 17 0 38 9 20 8 46 17 56 20 11 2 23 9 28 16
4 7 8 10 8 6 0 -4 30 3 66 17 36 14 70 22 75 19 5 -3 12 2 15 10 3 9 9 14 13
12 3 -2 24 4 46 14 22 11 48 19 57 20 9 0 24 7 32 16 9 8 16 13 16 10 0 -3 15
1 34 9 18 8 36 11 40 8 3 -4 6 -1 6 5 0 7 9 12 20 12 11 0 20 5 20 12 0 6 3 9
6 5 4 -3 19 0 35 9 16 8 30 14 31 13 2 -1 23 8 48 19 25 11 58 24 73 27 15 4
27 11 27 17 0 5 4 7 9 3 5 -3 12 -1 16 5 3 5 15 10 26 10 10 0 19 5 19 12 0 6
2 9 5 6 6 -5 129 46 283 118 41 19 79 36 85 37 7 1 14 4 17 7 5 5 81 43 90 45
3 0 31 13 62 29 32 15 60 27 64 26 4 -1 10 2 13 7 8 12 163 87 174 85 4 -1 7
2 7 8 0 5 7 10 15 10 8 0 15 5 15 11 0 5 4 8 9 4 5 -3 12 -1 16 5 4 6 11 8 16
5 5 -4 9 -2 9 4 0 5 10 13 23 17 12 3 30 13 40 22 9 8 17 12 17 9 0 -4 20 4
43 18 24 13 66 35 92 49 26 14 54 31 61 37 8 6 14 8 14 4 0 -5 8 -1 18 8 10
10 22 14 25 10 4 -3 7 -2 7 4 0 6 12 16 28 22 15 6 50 24 77 40 28 16 77 44
110 61 33 18 62 35 65 39 3 3 26 17 53 31 26 13 47 28 47 32 0 5 3 7 8 6 9 -3
156 83 160 94 2 5 8 6 13 2 5 -3 9 0 9 5 0 6 5 11 11 11 6 0 25 10 42 22 18
13 35 23 39 23 4 0 15 7 25 15 23 19 101 70 107 70 9 0 101 64 108 74 4 6 8 7
8 2 0 -5 10 -1 23 10 12 11 34 26 50 34 15 7 27 17 27 22 0 4 7 8 15 8 7 0 19
8 24 18 6 9 11 14 11 9 0 -6 216 136 230 152 3 4 17 12 32 20 15 8 25 18 22
23 -3 5 -1 7 4 6 9 -3 120 71 147 98 8 9 15 12 15 7 0 -4 4 -3 8 2 4 6 23 22
42 35 19 13 39 30 43 37 4 7 13 13 20 13 7 0 27 14 45 31 17 16 32 27 32 24 0
-4 7 0 15 9 9 8 36 30 60 47 25 18 45 37 45 42 0 6 3 8 6 4 3 -3 11 -1 18 4 6
5 23 19 37 32 15 12 42 33 60 47 19 14 44 35 57 47 12 13 26 23 30 24 9 1 88
67 114 93 10 11 18 17 18 13 0 -4 14 6 30 23 17 17 30 28 30 24 0 -3 15 9 34
28 44 42 76 69 76 63 0 -3 14 10 31 30 18 20 33 34 36 32 2 -2 21 12 41 32 53
50 111 101 116 102 2 1 34 29 69 62 169 159 217 203 222 199 3 -3 5 3 5 13 0
10 3 16 6 12 5 -5 421 406 517 511 21 23 42 42 47 42 6 0 9 3 8 8 -2 4 12 23
30 42 93 100 132 145 132 153 0 4 5 5 10 2 6 -3 10 -2 10 4 0 6 12 23 28 39
15 15 47 52 72 82 25 30 59 69 76 87 17 17 29 35 26 38 -3 3 0 5 7 5 7 0 9 5
5 12 -4 6 -3 8 3 5 6 -4 18 3 26 16 8 12 24 33 36 46 11 13 21 28 21 33 0 5 5
6 10 3 6 -3 10 0 10 7 0 8 8 21 18 30 9 9 31 33 47 54 17 20 40 47 51 60 12
12 19 25 17 28 -3 3 2 8 11 12 9 3 16 10 16 16 0 5 11 19 25 32 14 13 25 26
25 30 0 6 24 38 53 68 9 10 14 18 10 18 -3 0 4 8 15 19 12 10 22 21 22 25 0 4
13 21 30 39 16 18 30 35 30 39 0 4 11 18 25 32 14 14 25 28 24 32 0 3 13 21
30 40 17 18 31 36 31 39 -1 7 83 119 93 123 4 2 7 8 7 13 0 10 10 24 43 60 9
10 15 19 12 19 -6 0 4 13 33 45 7 8 10 15 5 15 -4 0 -1 6 7 13 17 14 60 73 60
82 0 4 15 25 33 48 19 23 44 59 56 80 13 20 27 37 32 37 5 0 9 5 9 11 0 7 27
52 60 101 33 49 60 92 60 97 0 4 9 16 20 26 11 10 20 24 20 32 0 7 3 13 8 13
4 0 13 13 20 29 7 16 24 41 37 57 13 15 22 30 20 32 -2 3 7 18 20 34 14 16 25
36 25 44 0 9 5 12 10 9 6 -3 10 1 10 9 0 8 7 22 16 30 8 9 13 16 9 16 -3 0 4
14 17 32 13 18 32 51 44 75 12 23 24 40 28 36 3 -3 6 1 6 10 0 20 0 20 -21 4z"/>
</g>
</svg>
