
<?xml version="1.0" encoding="utf-8"?>
<svg version="1.1" id="Capa_1" xmlns="http://www.w3.org/2000/svg" xmlns:xlink="http://www.w3.org/1999/xlink" x="0px" y="0px"
	 viewBox="0 0 473.3 478.6" style="enable-background:new 0 0 473.3 478.6;" xml:space="preserve">
<style type="text/css">
	.st0{display:none;clip-path:url(#SVGID_2_);stroke:#000000;stroke-miterlimit:10;}
	.st1{clip-path:url(#SVGID_2_);fill:#ffffff;}
	.st2{clip-path:url(#SVGID_2_);fill:#2164AC;}
</style>
<g>
	<defs>
		<polyline id="SVGID_1_" points="-723.2,993.1 -723.2,-86.9 1196.8,-86.9"/>
	</defs>
	<clipPath id="SVGID_2_">
		<use xlink:href="#SVGID_1_"  style="overflow:visible;"/>
	</clipPath>
	<rect x="-801.2" y="-120.9" class="st0" width="2092" height="1226"/>
	<path class="st1" d="M149.8,235.5c23.8,24.3,58.4,77.9,59.5,81.2c101.4-22.6,188-63.3,264-125.9c-57,95.1-130.6,169.1-228.7,224.5c-11.7,6.6-23.7,12.9-35.9,18.8C184.3,446,159.1,456.3,133,465c-11,3.7-37.6,11.6-37.6,11.6s-2.4-10.2-3.6-21.9c-4.7-43.4-2.4-81.5,1.4-123.5c2.5-27.1,6.6-53.7,12.4-79.9c3.4-15.3,7.3-30.4,11.7-45.3C128.7,215.2,139.6,225,149.8,235.5"/>
	<path class="st2" d="M203.2,181.8c-33,8-96.8,10.2-100.2,9.6c-32.5,98.7-42.5,189.8-27.6,287.1C22.8,380.9-2.4,283.9,0.2,171.2c0.3-13.5,1.1-27,2.2-40.5c2.3-26.9,6.4-53.9,12.3-80.8c2.5-11.3,9.1-37.1,9.1-37.1s8.6,3.2,17.4,7.6c39.7,18.1,74.7,39,108.8,63.8c22,16,42.8,33.2,62.3,51.5c11.4,10.7,22.4,21.8,32.9,33.3C231.5,174.1,217.5,178.4,203.2,181.8"/>
	<path class="st1" d="M226.5,255.3c8.9-32.8,37.7-89.8,39.9-92.4C195.6,86.8,120,33.9,27.6,0c110.9,1.1,208.7,25.9,306.1,82.6 c11.7,6.8,23.1,13.9,34.4,21.5c22.5,15,44.1,31.6,64.9,49.7c8.7,7.6,27.8,25.6,27.8,25.6s-6,6.6-14.4,13.2c-35.1,26-70.6,45.3-108.7,63.2c-24.6,11.6-49.7,21.5-75.2,29.7c-14.9,4.8-29.9,9.1-45,12.8C219.6,283.8,222.6,269.5,226.5,255.3"/>
</g>
</svg>
